<?xml version="1.0" standalone="no"?>
<!DOCTYPE svg PUBLIC "-//W3C//DTD SVG 20010904//EN"
 "http://www.w3.org/TR/2001/REC-SVG-20010904/DTD/svg10.dtd">
<svg version="1.0" xmlns="http://www.w3.org/2000/svg"
 width="512.000000pt" height="512.000000pt" viewBox="0 0 512.000000 512.000000"
 preserveAspectRatio="xMidYMid meet">

<g transform="translate(0.000000,512.000000) scale(0.100000,-0.100000)"
fill="#000000" stroke="none">
<path d="M3835 4372 c-293 -269 -1912 -1754 -2029 -1861 -32 -29 -54 -52 -49
-50 5 2 173 117 374 256 1229 850 1594 1099 1597 1088 2 -7 -6 -162 -18 -345
-11 -182 -20 -336 -20 -340 0 -5 -165 -142 -366 -305 -253 -205 -362 -300
-353 -305 8 -4 79 -27 157 -50 l144 -42 146 68 146 69 -70 6 c-38 4 -98 7
-134 8 -35 0 -60 5 -55 9 6 5 155 71 333 147 198 85 322 144 322 152 0 12 107
1081 159 1583 10 102 18 186 18 186 -1 1 -137 -123 -302 -274z"/>
<path d="M1972 4180 l-184 -5 -165 -300 c-90 -165 -168 -304 -174 -309 -5 -6
-6 40 -2 120 3 71 3 127 1 124 -19 -18 -158 -258 -158 -272 0 -19 47 -270 57
-302 4 -15 71 48 337 319 l331 339 350 -13 c193 -7 351 -14 353 -16 4 -3
-1444 -1732 -1499 -1790 -50 -53 -31 -52 24 1 28 28 189 175 357 325 309 278
662 596 1474 1329 247 223 463 417 480 432 l31 28 -715 -3 c-393 -1 -798 -4
-898 -7z"/>
<path d="M2025 1700 c-68 -10 -132 -44 -155 -83 -69 -112 -11 -220 143 -266
134 -41 158 -52 168 -78 17 -46 -20 -83 -84 -83 -43 0 -84 31 -95 72 l-8 31
-79 -2 c-44 -1 -84 -6 -88 -10 -18 -17 15 -96 57 -137 54 -54 102 -67 232 -62
92 3 106 6 150 34 63 39 94 91 94 162 0 115 -70 171 -267 212 -59 13 -88 38
-78 69 7 24 37 34 86 29 26 -2 39 -11 54 -36 l20 -33 79 5 c43 3 81 8 83 10
11 11 -11 70 -38 101 -49 56 -161 82 -274 65z"/>
<path d="M3222 1699 c-116 -19 -193 -88 -226 -198 -41 -141 3 -304 101 -371
53 -36 103 -49 194 -50 113 0 170 20 230 80 58 58 79 120 79 230 0 110 -21
172 -79 230 -69 69 -180 99 -299 79z m144 -155 c74 -49 71 -261 -4 -310 -34
-22 -103 -22 -136 -1 -43 28 -60 74 -60 157 -1 58 4 83 19 110 38 65 118 85
181 44z"/>
<path d="M370 1390 l0 -300 90 0 90 0 0 121 0 120 32 -3 c36 -3 58 -31 131
-168 l37 -70 104 0 103 0 -40 78 c-55 108 -86 151 -120 169 l-30 15 39 18
c145 66 138 268 -11 309 -22 6 -125 11 -232 11 l-193 0 0 -300z m332 168 c30
-24 31 -56 4 -83 -22 -22 -34 -25 -91 -25 l-65 0 0 60 0 60 68 0 c39 0 75 -5
84 -12z"/>
<path d="M990 1390 l0 -300 90 0 90 0 0 120 0 120 29 0 c36 0 57 -26 125 -152
l47 -88 103 0 104 0 -53 101 c-59 112 -78 137 -115 151 -24 9 -24 9 15 27 143
65 140 261 -4 310 -21 7 -111 11 -232 11 l-199 0 0 -300z m340 160 c25 -25 25
-41 -1 -74 -19 -24 -27 -26 -90 -26 l-69 0 0 60 0 60 70 0 c57 0 74 -4 90 -20z"/>
<path d="M2430 1390 l0 -300 90 0 90 0 0 109 0 108 95 6 c163 9 223 56 232
180 6 84 -23 142 -87 175 -41 20 -57 22 -232 22 l-188 0 0 -300z m310 160 c26
-26 26 -72 -1 -96 -14 -13 -36 -18 -72 -19 l-52 0 -3 68 -3 67 56 0 c42 0 60
-5 75 -20z"/>
<path d="M3675 1390 l0 -300 93 0 92 0 0 120 0 120 30 0 c34 0 58 -31 128
-167 l37 -73 103 0 c56 0 102 3 102 6 0 11 -99 188 -117 210 -10 12 -29 27
-42 34 -24 13 -24 13 20 34 135 65 124 266 -17 305 -22 6 -124 11 -234 11
l-195 0 0 -300z m339 164 c9 -8 16 -28 16 -44 0 -42 -32 -60 -107 -60 l-63 0
0 60 0 60 69 0 c50 0 74 -4 85 -16z"/>
<path d="M4250 1620 l0 -70 95 0 95 0 0 -230 0 -230 90 0 90 0 2 228 3 227 95
5 95 5 0 68 0 67 -282 0 -283 0 0 -70z"/>
<path d="M383 963 c-21 -8 -15 -33 12 -45 36 -16 31 -31 -7 -22 -29 6 -31 5
-19 -10 15 -17 48 -21 69 -7 20 12 11 45 -13 49 -37 7 -40 22 -4 22 25 0 30 3
19 10 -16 10 -37 12 -57 3z"/>
<path d="M520 921 c0 -39 4 -51 15 -51 8 0 15 9 15 19 0 13 8 21 23 23 16 2
22 10 22 28 0 22 -5 25 -37 28 l-38 3 0 -50z m60 19 c0 -5 -7 -10 -15 -10 -8
0 -15 5 -15 10 0 6 7 10 15 10 8 0 15 -4 15 -10z"/>
<path d="M688 959 c-28 -16 -23 -67 7 -81 38 -17 75 3 75 41 0 43 -42 64 -82
40z m52 -39 c0 -23 -4 -30 -20 -30 -16 0 -20 7 -20 30 0 23 4 30 20 30 16 0
20 -7 20 -30z"/>
<path d="M840 920 c0 -38 4 -50 15 -50 9 0 15 9 16 23 l0 22 16 -22 c8 -13 22
-23 29 -23 17 0 18 12 2 28 -8 8 -8 15 2 27 19 22 -4 45 -46 45 l-34 0 0 -50z
m60 20 c0 -5 -7 -10 -15 -10 -8 0 -15 5 -15 10 0 6 7 10 15 10 8 0 15 -4 15
-10z"/>
<path d="M990 960 c0 -5 7 -10 15 -10 11 0 15 -11 15 -40 0 -29 4 -40 15 -40
11 0 15 11 15 40 0 29 4 40 15 40 8 0 15 5 15 10 0 6 -20 10 -45 10 -25 0 -45
-4 -45 -10z"/>
<path d="M1249 954 c-11 -14 -10 -18 6 -30 10 -8 25 -14 32 -14 7 0 13 -5 13
-11 0 -7 -11 -8 -30 -4 -31 7 -42 -8 -14 -19 44 -17 88 10 64 39 -7 8 -21 15
-31 15 -11 0 -19 5 -19 10 0 6 12 10 28 10 21 0 24 2 12 10 -22 14 -46 12 -61
-6z"/>
<path d="M1390 920 c0 -38 4 -50 15 -50 8 0 15 9 15 20 0 13 7 20 20 20 13 0
20 -7 20 -20 0 -11 7 -20 15 -20 11 0 15 12 15 50 0 36 -4 50 -14 50 -7 0 -16
-9 -19 -20 -3 -11 -10 -20 -17 -20 -7 0 -14 9 -17 20 -3 11 -12 20 -19 20 -10
0 -14 -14 -14 -50z"/>
<path d="M1578 959 c-25 -14 -24 -65 1 -79 27 -14 47 -13 65 6 44 44 -12 105
-66 73z m50 -42 c3 -21 -1 -27 -16 -27 -22 0 -34 22 -25 45 9 25 38 13 41 -18z"/>
<path d="M1734 945 c-15 -23 -15 -27 0 -50 30 -45 86 -28 86 27 0 49 -59 65
-86 23z m61 -25 c0 -16 -6 -26 -18 -28 -19 -4 -32 20 -23 44 9 25 41 13 41
-16z"/>
<path d="M1880 960 c0 -5 9 -10 20 -10 17 0 20 -7 20 -40 0 -22 5 -40 10 -40
6 0 10 18 10 40 0 28 4 40 14 40 8 0 18 5 21 10 4 6 -13 10 -44 10 -28 0 -51
-4 -51 -10z"/>
<path d="M2040 920 c0 -38 4 -50 15 -50 11 0 15 12 15 50 0 38 -4 50 -15 50
-11 0 -15 -12 -15 -50z"/>
<path d="M2140 920 c0 -38 4 -50 15 -50 10 0 15 10 15 28 l1 27 22 -27 c34
-42 47 -36 47 22 0 38 -4 50 -15 50 -10 0 -15 -10 -15 -27 l-1 -28 -20 28
c-33 43 -49 35 -49 -23z"/>
<path d="M2328 959 c-28 -16 -23 -67 6 -80 34 -16 76 -4 76 21 0 15 -6 20 -27
19 -16 0 -22 -3 -15 -6 19 -7 14 -23 -7 -23 -21 0 -33 22 -24 46 4 11 13 13
35 8 23 -5 29 -3 26 7 -6 17 -47 22 -70 8z"/>
<path d="M2570 920 l0 -50 46 0 c27 0 43 4 39 10 -3 6 -17 10 -31 10 -13 0
-24 5 -24 10 0 6 11 10 25 10 14 0 25 5 25 10 0 6 -11 10 -25 10 -14 0 -25 5
-25 10 0 6 11 10 25 10 14 0 25 5 25 10 0 6 -18 10 -40 10 l-40 0 0 -50z"/>
<path d="M2736 954 c-35 -35 -7 -84 48 -84 30 0 32 2 34 39 2 31 -2 42 -17 50
-27 15 -47 14 -65 -5z m58 -20 c7 -19 -2 -37 -15 -29 -5 4 -9 1 -9 -4 0 -6 -4
-11 -10 -11 -11 0 -14 43 -3 53 12 12 31 7 37 -9z"/>
<path d="M2890 932 c0 -43 14 -62 46 -62 32 0 54 26 54 66 0 49 -28 46 -32 -3
-2 -27 -8 -39 -20 -41 -15 -3 -18 4 -18 37 0 30 -4 41 -15 41 -11 0 -15 -11
-15 -38z"/>
<path d="M3060 920 c0 -38 4 -50 15 -50 11 0 15 12 15 50 0 38 -4 50 -15 50
-11 0 -15 -12 -15 -50z"/>
<path d="M3160 920 c0 -38 4 -50 15 -50 8 0 15 9 15 20 0 13 7 20 20 20 25 0
44 32 28 48 -7 7 -27 12 -45 12 -33 0 -33 0 -33 -50z m60 20 c0 -5 -7 -10 -15
-10 -8 0 -15 5 -15 10 0 6 7 10 15 10 8 0 15 -4 15 -10z"/>
<path d="M3310 920 c0 -27 5 -50 10 -50 6 0 10 14 10 30 0 37 18 40 22 3 4
-38 24 -39 33 -1 l9 33 3 -32 c6 -51 23 -39 23 17 0 38 -4 50 -15 50 -9 0 -18
-8 -21 -17 -15 -46 -17 -47 -26 -15 -6 22 -15 32 -28 32 -17 0 -20 -7 -20 -50z"/>
<path d="M3490 920 l0 -50 45 0 c25 0 45 5 45 10 0 6 -13 10 -30 10 -16 0 -30
5 -30 10 0 6 11 10 25 10 14 0 25 5 25 10 0 6 -11 10 -25 10 -14 0 -25 5 -25
10 0 6 11 10 24 10 14 0 28 5 31 10 4 6 -12 10 -39 10 l-46 0 0 -50z"/>
<path d="M3650 920 c0 -27 5 -50 10 -50 6 0 10 12 10 28 l1 27 22 -27 c34 -42
47 -36 47 23 0 36 -4 49 -12 46 -7 -2 -12 -14 -11 -26 4 -29 -11 -27 -27 4
-23 42 -40 31 -40 -25z"/>
<path d="M3810 960 c0 -5 7 -10 15 -10 11 0 15 -11 15 -40 0 -22 5 -40 10 -40
6 0 10 18 10 40 0 33 3 40 20 40 11 0 20 5 20 10 0 6 -20 10 -45 10 -25 0 -45
-4 -45 -10z"/>
<path d="M4073 963 c-21 -8 -15 -33 12 -45 36 -16 31 -31 -7 -22 -29 6 -31 5
-19 -10 15 -17 48 -21 69 -7 20 12 11 45 -13 49 -37 7 -40 22 -4 22 25 0 30 3
19 10 -16 10 -37 12 -57 3z"/>
<path d="M4200 960 c0 -5 9 -10 20 -10 17 0 20 -7 20 -40 0 -22 5 -40 10 -40
6 0 10 18 10 40 0 28 4 40 14 40 8 0 18 5 21 10 4 6 -13 10 -44 10 -28 0 -51
-4 -51 -10z"/>
<path d="M4366 954 c-9 -8 -16 -24 -16 -34 0 -22 26 -50 46 -50 32 0 54 21 54
50 0 45 -52 66 -84 34z m59 -34 c0 -29 -32 -41 -41 -16 -9 24 4 48 23 44 12
-2 18 -12 18 -28z"/>
<path d="M4520 920 c0 -38 4 -50 15 -50 8 0 15 9 15 20 0 11 3 20 8 20 4 0 13
-9 20 -20 7 -11 19 -20 28 -20 15 0 15 2 1 24 -11 16 -13 26 -5 34 21 21 0 42
-42 42 l-40 0 0 -50z m60 20 c0 -5 -7 -10 -15 -10 -8 0 -15 5 -15 10 0 6 7 10
15 10 8 0 15 -4 15 -10z"/>
<path d="M4680 920 l0 -50 40 0 c22 0 40 5 40 10 0 6 -11 10 -25 10 -14 0 -25
5 -25 10 0 6 11 10 25 10 14 0 25 5 25 10 0 6 -11 10 -25 10 -14 0 -25 5 -25
10 0 6 11 10 25 10 14 0 25 5 25 10 0 6 -18 10 -40 10 l-40 0 0 -50z"/>
</g>
</svg>
